<?xml version="1.0" encoding="UTF-8" standalone="no"?><!DOCTYPE svg PUBLIC "-//W3C//DTD SVG 1.1//EN" "http://www.w3.org/Graphics/SVG/1.1/DTD/svg11.dtd"><svg width="100%" height="100%" viewBox="0 0 3544 3544" version="1.1" xmlns="http://www.w3.org/2000/svg" xmlns:xlink="http://www.w3.org/1999/xlink" xml:space="preserve" xmlns:serif="http://www.serif.com/" style="fill-rule:evenodd;clip-rule:evenodd;stroke-linejoin:round;stroke-miterlimit:2;"><rect id="画板1" x="0" y="0" width="3543.307" height="3543.307" style="fill:none;"/><g id="画板11" serif:id="画板1"><path d="M3543.307,177.165l0,3188.976c0,97.78 -79.385,177.165 -177.165,177.165l-3188.976,0c-97.78,0 -177.165,-79.385 -177.165,-177.165l0,-3188.976c0,-97.78 79.385,-177.165 177.165,-177.165l3188.976,0c97.78,0 177.165,79.385 177.165,177.165Z" style="fill:#fff;"/><path d="M1624.016,3388.287l0,-295.276c-307.579,-34.449 -571.481,-161.786 -791.708,-382.013c-220.226,-220.226 -347.564,-484.129 -382.013,-791.708l-295.276,0l0,-295.276l295.276,0c34.449,-307.579 161.786,-571.481 382.013,-791.708c220.226,-220.226 484.129,-347.564 791.708,-382.013l0,-295.276l295.276,0l0,295.276c307.579,34.449 571.481,161.786 791.708,382.013c220.226,220.226 347.564,484.129 382.013,791.708l295.276,0l0,295.276l-295.276,0c-34.449,307.579 -161.786,571.481 -382.013,791.708c-220.226,220.226 -484.129,347.564 -791.708,382.013l0,295.276l-295.276,0Zm147.638,-583.169c285.433,0 529.035,-100.886 730.807,-302.657c201.772,-201.772 302.657,-445.374 302.657,-730.807c0,-285.433 -100.886,-529.035 -302.657,-730.807c-201.772,-201.772 -445.374,-302.657 -730.807,-302.657c-285.433,0 -529.035,100.886 -730.807,302.657c-201.772,201.772 -302.657,445.374 -302.657,730.807c0,285.433 100.886,529.035 302.657,730.807c201.772,201.772 445.374,302.657 730.807,302.657Zm0,-442.913c-162.402,0 -301.427,-57.825 -417.077,-173.474c-115.65,-115.65 -173.474,-254.675 -173.474,-417.077c0,-162.402 57.825,-301.427 173.474,-417.077c115.65,-115.65 254.675,-173.474 417.077,-173.474c162.402,0 301.427,57.825 417.077,173.474c115.65,115.65 173.474,254.675 173.474,417.077c0,162.402 -57.825,301.427 -173.474,417.077c-115.65,115.65 -254.675,173.474 -417.077,173.474Zm0,-295.276c81.201,0 150.714,-28.912 208.538,-86.737c57.825,-57.825 86.737,-127.338 86.737,-208.538c0,-81.201 -28.912,-150.714 -86.737,-208.538c-57.825,-57.825 -127.338,-86.737 -208.538,-86.737c-81.201,0 -150.714,28.912 -208.538,86.737c-57.825,57.825 -86.737,127.338 -86.737,208.538c0,81.201 28.912,150.714 86.737,208.538c57.825,57.825 127.338,86.737 208.538,86.737Z" style="fill-rule:nonzero;"/></g></svg>